# xmcd
#
# Track frame offsets: 
#        187
#        16337
#        29400
#        46545
#        62325
#        81965
#        97450
#        112577
#        132020
#        145250
#        161832
#
# Disc length: 2338 seconds
#
# Revision: 2
# Processed by: cddbd v1.5.1PL0 Copyright (c) Steve Scherf et al.
# Submitted via: ExactAudioCopy v0.95a5
#
DISCID=8609200b
DTITLE=The Mavericks - Music For All Occasions
DYEAR=1995
DGENRE=Country
TTITLE0=Foolish Heart
TTITLE1=One Step Away
TTITLE2=Here Comes The Rain
TTITLE3=Missing You
TTITLE4=All You Ever Do Is Bring Me Down (featuring Flaco Jimenez)
TTITLE5=My Secret Flame
TTITLE6=The Writing On The Wall
TTITLE7=Loving You
TTITLE8=If You Only Knew
TTITLE9=I'm Not Gonna Cry For You
TTITLE10=Something Stupid (a duet with Raul and Trisha Yearwood)
EXTD=
EXTT0=
EXTT1=
EXTT2=
EXTT3=
EXTT4=
EXTT5=
EXTT6=
EXTT7=
EXTT8=
EXTT9=
EXTT10=
PLAYORDER=
